<?xml version="1.0" standalone="no"?>
<!DOCTYPE svg PUBLIC "-//W3C//DTD SVG 20010904//EN"
 "http://www.w3.org/TR/2001/REC-SVG-20010904/DTD/svg10.dtd">
<svg version="1.0" xmlns="http://www.w3.org/2000/svg"
 width="183.000000pt" height="183.000000pt" viewBox="0 0 183.000000 183.000000"
 preserveAspectRatio="xMidYMid meet">
<metadata>
Created by potrace 1.14, written by Peter Selinger 2001-2017
</metadata>
<g transform="translate(0.000000,183.000000) scale(0.100000,-0.100000)"
fill="#000000" stroke="none">
<path d="M0 1000 l0 -310 915 0 915 0 0 310 0 310 -915 0 -915 0 0 -310z
m1229 176 c41 -22 70 -53 92 -101 63 -136 -63 -293 -218 -271 -143 19 -223
157 -163 280 48 100 187 144 289 92z m-832 -9 c39 -21 63 -63 63 -112 0 -83
-64 -135 -165 -135 l-55 0 0 -55 0 -55 -60 0 -60 0 0 191 0 191 123 -4 c91 -3
130 -8 154 -21z m255 -79 c19 -56 39 -103 44 -105 6 -2 25 44 44 102 l34 105
68 0 68 0 -13 -32 c-8 -18 -42 -104 -77 -190 l-64 -158 -61 0 -60 0 -77 190
-76 190 68 0 68 0 34 -102z m1068 52 l0 -50 -60 0 -60 0 0 -140 0 -140 -60 0
-60 0 0 140 0 140 -55 0 -55 0 0 50 0 50 175 0 175 0 0 -50z"/>
<path d="M1082 1083 c-18 -7 -42 -57 -42 -87 0 -13 12 -38 26 -55 54 -64 149
-26 149 59 0 53 -35 90 -84 89 -20 0 -42 -3 -49 -6z"/>
<path d="M240 1050 c0 -49 1 -50 31 -50 43 0 69 17 69 45 0 29 -34 55 -72 55
-27 0 -28 -2 -28 -50z"/>
<path d="M110 575 l0 -55 33 0 c40 0 57 15 57 51 0 32 -32 59 -67 59 -21 0
-23 -4 -23 -55z m55 -5 c0 -13 -6 -25 -12 -27 -9 -3 -13 6 -13 27 0 21 4 30
13 28 6 -3 12 -15 12 -28z"/>
<path d="M380 575 l0 -55 40 0 c22 0 40 5 40 10 0 6 -11 10 -25 10 -14 0 -25
5 -25 10 0 6 9 10 21 10 12 0 19 5 16 13 -2 6 -11 11 -21 9 -9 -2 -16 2 -16 8
0 5 11 10 25 10 16 0 25 6 25 15 0 11 -11 15 -40 15 l-40 0 0 -55z"/>
<path d="M648 619 c-26 -15 -22 -48 7 -59 32 -12 32 -19 -1 -17 -15 1 -29 -4
-31 -11 -4 -10 6 -12 38 -10 37 2 45 7 47 25 3 17 -3 26 -22 33 -30 11 -36 24
-7 15 17 -5 40 10 30 19 -13 11 -47 14 -61 5z"/>
<path d="M890 575 c0 -42 3 -55 15 -55 12 0 15 13 15 55 0 42 -3 55 -15 55
-12 0 -15 -13 -15 -55z"/>
<path d="M1110 610 c-40 -40 -15 -90 46 -90 31 0 34 3 34 30 0 24 -4 30 -21
30 -16 0 -20 -5 -16 -20 6 -24 -5 -26 -23 -5 -21 25 -4 48 30 40 34 -8 41 8
11 25 -28 14 -38 13 -61 -10z"/>
<path d="M1370 575 c0 -42 3 -55 15 -55 10 0 15 10 15 26 l0 27 21 -27 c34
-43 49 -34 49 29 0 42 -3 55 -15 55 -10 0 -15 -10 -15 -32 l0 -33 -26 33 c-14
17 -30 32 -35 32 -5 0 -9 -25 -9 -55z"/>
<path d="M1656 615 c-23 -23 -20 -33 17 -56 l32 -20 -32 6 c-27 5 -33 3 -33
-10 0 -13 9 -16 43 -13 35 2 43 7 45 25 3 17 -5 26 -30 38 -29 13 -30 15 -6
10 23 -4 47 9 36 20 -14 14 -57 14 -72 0z"/>
</g>
</svg>
