<svg width="607" height="609" viewBox="0 0 607 609" fill="none" xmlns="http://www.w3.org/2000/svg">
<mask id="mask0_2813_1624" style="mask-type:luminance" maskUnits="userSpaceOnUse" x="0" y="0" width="607" height="609">
<path d="M607 0H0V609H607V0Z" fill="white"/>
</mask>
<g mask="url(#mask0_2813_1624)">
<path d="M287.48 347.7L261.88 314.67L319.08 262.17L344.68 295.2L287.48 347.7ZM262.6 314.73L287.54 346.92L343.96 295.14L319.02 262.95L262.6 314.73Z" fill="#1B1D1E"/>
<path d="M284.31 350.46L259.22 313.15L259.41 312.99L322.24 259.42L347.33 296.73L347.14 296.89L284.31 350.46ZM259.98 313.25L284.43 349.61L346.59 296.61L322.14 260.25L259.98 313.25Z" fill="#1B1D1E"/>
<path d="M280.83 353.27L256.52 311.34L325.74 256.59L350.05 298.52L280.83 353.27ZM257.31 311.49L281.01 352.35L349.27 298.36L325.57 257.49L257.31 311.48V311.49Z" fill="#1B1D1E"/>
<path d="M277.01 356.13L253.76 309.24L329.54 253.75L352.79 300.64L277.01 356.13ZM254.59 309.44L277.25 355.15L351.97 300.43L329.31 254.72L254.59 309.44Z" fill="#1B1D1E"/>
<path d="M272.84 359.01L250.99 306.79L333.71 250.86L355.56 303.08L272.84 359.01ZM251.85 307.05L273.15 357.96L354.7 302.82L333.4 251.91L251.85 307.05Z" fill="#1B1D1E"/>
<path d="M268.3 361.9L248.21 303.98L338.26 247.97L358.35 305.89L268.3 361.9ZM249.1 304.3L268.69 360.78L357.44 305.57L337.85 249.09L249.1 304.3Z" fill="#1B1D1E"/>
<path d="M263.37 364.77L245.44 300.77L245.71 300.62L343.19 245.09L361.12 309.09L360.85 309.24L263.37 364.77ZM246.38 301.15L263.87 363.57L360.2 308.7L342.71 246.27L246.38 301.14V301.15Z" fill="#1B1D1E"/>
<path d="M258.02 367.62L242.7 297.14L348.54 242.26L363.86 312.75L258.02 367.63V367.62ZM243.67 297.59L258.61 366.35L362.88 312.28L347.94 243.52L243.67 297.59Z" fill="#1B1D1E"/>
<path d="M252.24 370.4L240.02 293.03L354.31 239.47L366.53 316.84L252.24 370.4ZM241.03 293.56L252.95 369.06L365.53 316.3L353.61 240.8L241.03 293.56Z" fill="#1B1D1E"/>
<path d="M246.02 373.09L237.44 288.42L360.55 236.78L369.13 321.45L246.02 373.09ZM238.48 289.04L246.85 371.68L368.08 320.82L359.71 238.18L238.48 289.04Z" fill="#1B1D1E"/>
<path d="M239.32 375.65L234.97 283.27L367.24 234.21L371.59 326.59L239.32 375.65ZM236.04 283.98L240.29 374.18L370.51 325.88L366.26 235.68L236.04 283.98Z" fill="#1B1D1E"/>
<path d="M232.14 378.05L232.65 277.55L233.03 277.43L374.41 231.82L373.9 332.33L373.52 332.45L232.14 378.06V378.05ZM233.76 278.36L233.26 376.52L372.79 331.51L373.29 233.35L233.76 278.37V278.36Z" fill="#1B1D1E"/>
<path d="M224.46 380.25L230.54 271.2L382.09 229.61L376.01 338.66L224.45 380.24L224.46 380.25ZM231.68 272.12L225.74 378.66L374.87 337.74L380.81 231.2L231.68 272.12Z" fill="#1B1D1E"/>
<path d="M216.27 382.2L228.66 264.2L390.28 227.68L377.89 345.68L216.27 382.2ZM229.83 265.24L217.72 380.57L376.72 344.64L388.83 229.31L229.83 265.24Z" fill="#1B1D1E"/>
<path d="M207.55 383.84L227.07 256.48L399 226.03L379.48 353.39L207.55 383.84ZM228.27 257.65L209.18 382.17L378.28 352.22L397.37 227.7L228.27 257.65Z" fill="#1B1D1E"/>
<path d="M198.3 385.13L225.84 248.02L226.36 247.95L408.27 224.74L380.73 361.85L380.21 361.92L198.3 385.13ZM227.06 249.33L200.13 383.43L379.51 360.54L406.44 226.44L227.06 249.33Z" fill="#1B1D1E"/>
<path d="M188.5 386L224.99 238.76L225.55 238.72L418.07 223.87L381.58 371.11L381.02 371.15L188.5 386ZM226.23 240.23L190.53 384.28L380.33 369.64L416.03 225.59L226.23 240.23Z" fill="#1B1D1E"/>
<path d="M178.15 386.38L224.61 228.66L225.22 228.64L428.42 223.47L381.96 381.19L381.35 381.21L178.15 386.37V386.38ZM225.87 230.29L180.4 384.65L380.7 379.56L426.17 225.2L225.87 230.29Z" fill="#1B1D1E"/>
<path d="M381.79 392.18L381.13 392.16L167.24 386.21L224.76 217.68L225.42 217.7L439.31 223.65L381.79 392.18ZM169.71 384.49L380.52 390.36L436.84 225.36L226.03 219.49L169.72 384.49H169.71Z" fill="#1B1D1E"/>
<path d="M381.02 404.09L380.31 404.03L155.8 385.4L225.54 205.77L226.25 205.83L450.76 224.46L381.02 404.09ZM158.5 383.71L379.76 402.07L448.06 226.15L226.8 207.79L158.5 383.71Z" fill="#1B1D1E"/>
<path d="M379.56 416.98L378.79 416.87L143.81 383.88L227 192.89L227.77 193L462.75 225.99L379.56 416.98ZM146.76 382.23L378.31 414.74L459.81 227.64L228.26 195.13L146.76 382.24V382.23Z" fill="#1B1D1E"/>
<path d="M377.31 430.88L376.48 430.71L131.3 381.53L229.26 178.98L230.09 179.15L475.27 228.33L377.31 430.88ZM134.49 379.95L376.08 428.41L472.07 229.92L230.48 181.46L134.49 379.95Z" fill="#1B1D1E"/>
<path d="M374.17 445.84L118.27 378.28L232.38 164.03L488.28 231.59L374.17 445.85V445.84ZM121.71 376.77L372.98 443.11L484.84 233.09L233.57 166.75L121.71 376.77Z" fill="#1B1D1E"/>
<path d="M370.06 461.91L104.76 374.01L236.5 147.96L501.8 235.86L370.06 461.91ZM108.47 372.61L368.92 458.91L498.09 237.27L237.64 150.97L108.47 372.61Z" fill="#1B1D1E"/>
<path d="M364.85 479.11L90.8 368.6L241.72 130.75L515.77 241.26L364.85 479.11ZM94.77 367.32L363.79 475.8L511.8 242.54L242.78 134.06L94.77 367.32Z" fill="#1B1D1E"/>
<path d="M358.42 497.49L76.4099 361.94L248.14 112.38L530.15 247.93L358.42 497.49ZM80.6599 360.81L357.46 493.86L525.92 249.06L249.12 116.01L80.6699 360.81H80.6599Z" fill="#1B1D1E"/>
<path d="M350.64 517.08L61.6499 353.89L62.6799 352.5L255.9 92.79L257.07 93.45L544.88 255.98L543.85 257.37L350.63 517.08H350.64ZM66.1699 352.94L349.79 513.1L540.37 256.94L256.75 96.78L66.1699 352.94Z" fill="#1B1D1E"/>
<path d="M341.39 537.9L340.15 537.08L46.5901 344.31L265.16 71.96L559.96 265.54L341.39 537.89V537.9ZM51.3901 343.56L340.7 533.54L555.16 266.31L265.85 76.33L51.3901 343.56Z" fill="#1B1D1E"/>
<path d="M330.52 559.97L329.21 558.98L31.29 333.07L276.04 49.8901L277.35 50.8801L575.27 276.79L330.52 559.97ZM36.3701 332.54L330.02 555.21L570.19 277.33L276.54 54.6601L36.3701 332.54Z" fill="#1B1D1E"/>
<path d="M317.87 583.32L15.8201 320L288.69 26.5498L590.74 289.87L317.86 583.32H317.87ZM21.1901 319.72L317.6 578.12L585.38 290.15L288.96 31.7398L21.1801 319.71L21.1901 319.72Z" fill="#1B1D1E"/>
<path d="M303.28 607.94L0.280029 304.93L303.28 1.91992L606.28 304.93L303.27 607.94H303.28ZM5.93002 304.93L303.28 602.28L600.63 304.93L303.28 7.57993L5.93002 304.93Z" fill="#1B1D1E"/>
</g>
</svg>
