<svg width="397" height="141" viewBox="0 0 397 141" fill="none" xmlns="http://www.w3.org/2000/svg">
<g clip-path="url(#clip0_651_2)">
<path d="M0.0429688 79.0958C0.0657715 75.0828 0.0794531 71.1337 0.102256 67.1846C0.102256 65.0094 0.0612109 62.8297 0.188906 60.6636C0.416933 56.8559 3.10309 54.138 6.88379 54.1061C14.4589 54.0468 22.0339 54.024 29.6044 54.2247C35.8204 54.3934 40.1484 58.5614 40.9647 64.3117C41.6716 62.7932 42.301 60.7457 43.4639 59.0676C45.7898 55.7022 49.2558 54.2657 53.3101 54.2657C70.5338 54.3448 87.759 54.4253 104.986 54.5074C105.319 54.5074 105.652 54.5667 106.062 54.6077L105.943 79.5791L0.0429688 79.0958Z" fill="black"/>
<path d="M32.5204 34.6297C33.5556 29.3126 36.4288 25.9107 41.5229 24.5655C42.3837 24.3417 43.2695 24.2283 44.1589 24.228C50.4889 24.2554 56.8281 24.1459 63.149 24.4378C68.7174 24.6977 72.7535 28.6012 73.7796 34.0916C73.7884 34.1582 73.8117 34.2221 73.848 34.2786C74.6324 32.6415 75.2436 30.7901 76.3107 29.2624C78.591 25.9517 81.984 24.4241 85.9791 24.4104C92.4642 24.4104 98.9447 24.456 105.425 24.4925C105.688 24.518 105.947 24.5684 106.201 24.643L106.082 49.6463L0.304688 49.1493L0.418701 24.1414C0.604485 24.0733 0.797185 24.0259 0.99333 24C7.87063 24.0593 14.7525 23.9544 21.6207 24.2462C26.9748 24.4743 30.9059 28.095 32.1738 33.3027C32.265 33.6766 32.379 34.046 32.5204 34.6297Z" fill="black"/>
<path d="M32.1758 109.339C32.1758 106.571 32.2031 103.912 32.2123 101.254C32.2123 98.1389 32.2123 95.0243 32.2624 91.9098C32.3217 86.9757 35.1265 84.1985 40.0473 84.2213C61.5274 84.3125 83.0091 84.4098 104.492 84.5132H105.902L105.806 109.676L32.1758 109.339Z" fill="black"/>
<path d="M200.567 24.9897L200.357 70.8739L190.251 70.8283L190.337 52.0177L172.875 51.9356L172.789 70.7508L162.609 70.7006L162.933 0L173.062 0.0456016L172.871 41.4974L190.36 41.5749L190.438 24.944L200.567 24.9897Z" fill="black"/>
<path d="M355.934 0.912109L366.164 0.957711L365.967 43.9691C366.487 43.4036 366.784 43.1163 367.048 42.7926C371.449 37.3888 375.859 31.9941 380.228 26.563C380.451 26.2479 380.752 25.9958 381.101 25.8312C381.45 25.6666 381.836 25.5951 382.221 25.6236C386.075 25.6874 389.929 25.6783 394.202 25.6966L376.826 47.0791L394.398 71.8544C389.919 71.8544 385.788 71.8544 381.656 71.745C381.227 71.745 380.744 71.0929 380.406 70.6414C375.955 64.4092 371.519 58.1664 367.098 51.9129C366.816 51.5162 366.515 51.1377 365.99 50.4491L365.894 71.7268C362.62 71.7268 359.51 71.7268 356.413 71.6492C356.144 71.6492 355.793 71.1932 355.647 70.8603C355.571 70.5234 355.562 70.1748 355.62 69.8343C355.72 47.4531 355.822 25.0703 355.925 2.68601L355.934 0.912109Z" fill="black"/>
<path d="M299.885 71.3984C299.114 68.6942 298.284 65.9627 297.563 63.1901C297.29 62.1276 296.861 61.6853 295.68 61.699C291.277 61.7567 286.869 61.7385 282.454 61.6442C281.287 61.6169 280.854 62.0182 280.566 63.1126C279.841 65.8715 278.965 68.5848 278.145 71.3483L268.043 71.3026C268.075 70.9649 268.13 70.6297 268.207 70.2994C272.281 57.3668 276.363 44.4373 280.452 31.5107C282.445 25.2542 290.545 23.0471 295.406 27.4841C296.549 28.5671 297.398 29.9229 297.874 31.4241C301.978 44.5072 305.918 57.6313 309.913 70.7418C309.961 70.9706 309.994 71.2021 310.014 71.4349L299.885 71.3984ZM289.596 35.6833H288.848C287.024 40.8043 285.706 46.0941 284.073 51.352L294.166 51.3976C292.629 46.0576 291.124 40.8682 289.596 35.6833Z" fill="black"/>
<path d="M229.773 25.04C233.03 25.04 236.09 25.0993 239.154 25.0674C240.194 25.0674 240.181 25.8289 240.354 26.4354C243.315 36.7718 246.269 47.1081 249.215 57.4445C249.548 58.5982 249.968 59.7246 250.346 60.8646L250.884 60.9148C251.199 60.1487 251.582 59.4054 251.796 58.6347C254.929 48.0916 258.076 37.5485 261.132 26.9827C261.529 25.6146 262.044 25.0674 263.526 25.1586C266.262 25.3045 268.962 25.2224 271.867 25.2361C271.74 25.7605 271.671 26.171 271.543 26.5677C267.521 39.3665 263.494 52.1654 259.463 64.9642C258.373 68.439 256.133 70.7009 252.476 71.166C248.818 71.6311 245.512 71.0748 243.236 67.8325C242.652 66.9766 242.204 66.0351 241.909 65.0417C237.935 52.0818 233.975 39.1081 230.029 26.1208C229.947 25.8472 229.897 25.5599 229.773 25.04Z" fill="black"/>
<path d="M124.736 68.913L124.764 63.1125C127.5 63.6186 130.141 64.3437 132.827 64.5444C135.429 64.789 138.053 64.6662 140.621 64.1796C144.83 63.2675 145.906 59.0539 142.801 56.0488C141.402 54.8 139.873 53.7053 138.24 52.7837C135.595 51.1512 132.767 49.7786 130.204 48.0503C126.032 45.2503 124.08 41.3058 124.823 36.2258C125.534 31.3647 128.385 28.1862 132.836 26.385C137.647 24.4378 142.682 24.4652 147.744 24.9622C149.404 25.1218 151.055 25.3954 152.72 25.6189L152.692 31.5015C149.71 31.2279 146.814 30.7855 143.913 30.7536C141.949 30.722 139.994 31.0306 138.135 31.6656C135.691 32.5366 135.034 35.1815 136.826 37.0694C138.327 38.6518 140.229 39.8922 142.085 41.0824C144.657 42.7377 147.448 44.0601 149.974 45.7793C156.177 49.9975 158.12 56.2312 155.256 62.3737C153.24 66.6922 149.468 68.7579 145.076 69.7749C138.272 71.3299 131.518 70.6367 124.736 68.913Z" fill="black"/>
<path d="M325.357 71.4531L315.27 71.4075L315.589 0.752441L325.677 0.798043L325.357 71.4531Z" fill="black"/>
<path d="M26.4512 109.325L0 109.202L0.114014 84.0984C0.656719 84.0984 1.13558 84.0391 1.61899 84.0437C7.39568 84.065 13.1815 84.0908 18.9764 84.1212C23.8517 84.1532 26.6153 86.9029 26.6153 91.7549C26.6153 97.1861 26.5743 102.617 26.5469 108.048C26.5424 108.436 26.5013 108.824 26.4512 109.325Z" fill="black"/>
<path d="M210.466 25.0503L210.258 70.9204L220.327 70.9661L220.536 25.096L210.466 25.0503Z" fill="black"/>
<path d="M345.533 71.5443L335.5 71.4987L335.71 25.6235L345.743 25.6691L345.533 71.5443Z" fill="black"/>
<path d="M358.87 82.1377C361.15 82.1377 363.43 82.0967 365.71 82.1833C369.359 82.3201 371.489 84.2217 371.607 87.8744C371.771 92.7127 371.739 97.5602 371.548 102.394C371.406 105.983 369.486 107.912 365.929 108.021C361.09 108.172 356.238 108.135 351.399 107.944C348.134 107.816 346.191 105.933 346.082 102.69C345.913 97.6103 345.931 92.5166 346.15 87.4412C346.296 84.0393 348.43 82.2791 351.91 82.1104C352.207 82.1104 352.503 82.083 352.799 82.083L358.883 82.1104L358.87 82.1377ZM350.793 95.0521C350.793 97.1224 350.729 99.1973 350.793 101.272C350.834 102.836 351.75 103.812 353.297 103.853C356.945 103.944 360.593 103.96 364.242 103.899C364.569 103.914 364.896 103.86 365.201 103.742C365.507 103.624 365.784 103.444 366.016 103.212C366.248 102.981 366.43 102.704 366.549 102.399C366.668 102.095 366.723 101.768 366.709 101.441C366.805 97.2501 366.864 93.0547 366.755 88.864C366.714 87.163 365.774 86.3741 364.059 86.3285C360.554 86.2343 357.045 86.2191 353.534 86.2829C351.787 86.3194 350.971 87.1037 350.857 88.832C350.706 90.8978 350.802 92.9772 350.793 95.0521Z" fill="black"/>
<path d="M191.049 88.3529H186.658C186.571 88.2298 186.475 88.1568 186.471 88.0747C186.357 85.6396 186.015 85.0696 183.023 85.0285C180.305 84.9921 177.584 84.9799 174.859 84.9921C172.41 84.9921 171.854 85.4937 171.767 87.5457C171.64 90.5646 172.082 91.13 174.709 91.39C178.813 91.7912 182.881 92.1515 186.959 92.6303C190.114 92.9997 191.337 94.2902 191.483 97.423C191.574 99.3996 191.533 101.38 191.359 103.351C191.154 105.704 189.804 107.118 187.437 107.218C183.538 107.387 179.625 107.323 175.721 107.328C174.089 107.328 172.451 107.328 170.828 107.195C168.092 106.945 166.842 105.627 166.619 102.936C166.536 101.915 166.619 100.884 166.619 99.7442L171.006 99.767C171.526 103.534 171.526 103.534 175.416 103.552C178.239 103.552 181.057 103.602 183.876 103.584C186.033 103.584 186.612 103.014 186.731 100.893C186.977 97.0081 186.607 96.5976 182.708 96.2192C178.918 95.8498 175.124 95.5306 171.352 95.0244C168.133 94.5912 167.047 93.2231 166.992 89.9489C166.965 88.5809 166.97 87.1809 167.038 85.7992C167.189 82.9035 168.725 81.3348 171.649 81.2983C176.446 81.2466 181.244 81.2634 186.042 81.3485C189.385 81.3987 190.876 82.9263 191.058 86.2735C191.086 86.8982 191.054 87.5549 191.049 88.3529Z" fill="black"/>
<path d="M297.976 121.601L293.516 121.578C293.479 121.195 293.429 120.826 293.397 120.447C293.297 119.17 292.613 118.395 291.331 118.372C287.82 118.315 284.306 118.298 280.792 118.322C279.588 118.322 278.867 118.997 278.817 120.265C278.817 120.657 278.739 121.054 278.739 121.446C278.739 123.858 279.068 124.333 281.444 124.602C285.229 125.035 289.023 125.349 292.813 125.751C293.747 125.84 294.671 126.016 295.572 126.275C296.378 126.468 297.095 126.926 297.609 127.575C298.124 128.224 298.405 129.027 298.409 129.855C298.522 132.076 298.515 134.302 298.386 136.522C298.24 138.916 296.681 140.503 294.245 140.539C288.754 140.621 283.262 140.599 277.768 140.471C275.401 140.416 274.042 139.08 273.664 136.736C273.481 135.541 273.518 134.31 273.449 133.011L278.01 133.033C278.388 136.335 277.636 136.818 282.452 136.841C285.188 136.841 287.892 136.896 290.615 136.873C293.137 136.873 293.652 136.307 293.693 133.822C293.762 130.078 293.57 129.905 289.771 129.545C285.972 129.185 282.192 128.783 278.411 128.345C275.451 128.003 274.179 126.695 273.992 123.763C273.885 122.235 273.885 120.702 273.992 119.175C274.229 116.038 275.492 114.701 278.666 114.578C282.42 114.437 286.187 114.537 289.949 114.546C291.135 114.546 292.33 114.546 293.507 114.651C296.475 114.943 297.711 116.234 297.939 119.211C298.04 119.964 297.98 120.744 297.976 121.601Z" fill="black"/>
<path d="M144.45 129.937C146.827 133.311 149.079 136.508 151.515 139.969C149.691 139.969 148.195 140.01 146.694 139.91C146.316 139.883 145.878 139.454 145.623 139.066C143.766 136.449 141.924 133.818 140.15 131.159C139.959 130.821 139.674 130.546 139.33 130.365C138.987 130.185 138.598 130.107 138.212 130.142C136 130.197 133.788 130.142 131.412 130.142L131.366 139.814L126.692 139.791C126.66 139.281 126.605 138.806 126.61 138.332C126.637 130.68 126.701 123.028 126.683 115.376C126.683 114.163 127.002 113.771 128.256 113.794C133.396 113.885 138.54 113.862 143.684 113.899C144.524 113.912 145.361 113.977 146.193 114.095C148.61 114.428 150.042 115.636 150.297 118.049C150.563 120.449 150.592 122.87 150.384 125.276C150.042 128.455 148.596 129.508 144.45 129.937ZM131.494 126.48C135.576 126.48 139.48 126.535 143.379 126.526C144.628 126.526 145.504 125.874 145.586 124.592C145.686 122.928 145.673 121.25 145.613 119.576C145.572 118.518 144.911 117.711 143.867 117.684C139.785 117.593 135.699 117.615 131.553 117.597L131.494 126.48Z" fill="black"/>
<path d="M141.464 88.0112L141.377 107.022H136.816L136.94 81.2166C139.097 80.9931 140.935 80.8746 142.645 82.9814C147.073 88.4216 151.821 93.5974 156.44 98.8781C156.696 99.1699 156.969 99.439 157.43 99.9223L157.512 81.3123H162.114L161.995 107.105C159.993 107.346 158.315 107.456 156.751 105.563C152.222 100.091 147.447 94.7967 142.768 89.4385C142.426 89.0692 142.088 88.7135 141.464 88.0112Z" fill="black"/>
<path d="M160.71 117.948L160.679 124.602L175.519 124.67V128.373L160.715 128.304L160.679 136.057L177.416 136.134V139.951L155.895 139.851L156.013 114.036L177.106 114.136V118.021L160.71 117.948Z" fill="black"/>
<path d="M267.613 125.094V128.824L252.746 128.756L252.709 136.481L269.487 136.558V140.38L247.957 140.279L248.076 114.451L269.191 114.551V118.427L252.837 118.354L252.809 125.026L267.613 125.094Z" fill="black"/>
<path d="M374.876 115.021L395.959 115.117V119.034L379.61 118.961L379.578 125.601L394.399 125.669V129.399L379.614 129.331L379.578 137.083L396.306 137.161V141.018L374.734 140.909L374.876 115.021Z" fill="black"/>
<path d="M310 81.937L331.079 82.0328V85.8633L314.752 85.7858L314.702 92.5713L329.565 92.6397V96.2149L314.72 96.1465L314.684 103.899L331.384 103.976V107.88L309.918 107.784L310 81.937Z" fill="black"/>
<path d="M255.616 81.709H260.313C260.313 82.32 260.313 82.849 260.313 83.378C260.313 88.7134 260.249 94.0442 260.249 99.3796C260.249 102.626 261.129 103.552 264.354 103.593C267.09 103.625 269.794 103.639 272.503 103.479C274.364 103.37 275.071 102.613 275.144 100.743C275.285 97.0448 275.294 93.3419 275.335 89.6391C275.367 87.0763 275.363 84.5089 275.377 81.8139L280.165 81.8367C280.165 82.2927 280.165 82.7715 280.165 83.2503C280.144 88.8289 280.118 94.4075 280.088 99.9861C280.088 100.333 280.088 100.679 280.06 101.026C279.732 105.782 278.108 107.519 273.347 107.661C269.197 107.789 265.038 107.706 260.892 107.492C257.659 107.328 255.643 105.394 255.588 102.211C255.442 95.4396 255.584 88.6313 255.616 81.709Z" fill="black"/>
<path d="M209.011 140.093C208.764 140.166 208.714 140.188 208.668 140.193C203.939 140.435 203.88 140.457 202.097 136.112C201.559 134.807 200.865 134.392 199.484 134.42C195.776 134.506 192.068 134.447 188.356 134.388C187.503 134.388 187.01 134.593 186.7 135.437C186.222 136.734 185.663 137.999 185.027 139.226C184.908 139.439 184.745 139.624 184.549 139.77C184.354 139.915 184.129 140.017 183.891 140.07C182.568 140.17 181.232 140.097 179.668 140.07C179.923 139.472 180.097 139.035 180.293 138.611C183.941 130.858 187.64 123.106 191.261 115.322C191.717 114.378 192.251 114.164 193.254 114.022C196.195 113.598 197.637 114.747 198.79 117.511C201.741 124.561 205.098 131.437 208.285 138.383C208.527 138.934 208.746 139.472 209.011 140.093ZM194.357 118.204C192.46 122.518 190.686 126.549 188.885 130.644L199.721 130.694L194.357 118.204Z" fill="black"/>
<path d="M350.756 140.717C350.647 140.762 350.536 140.8 350.423 140.831C345.73 141.155 345.671 141.178 343.915 136.869C343.372 135.532 342.729 135.017 341.233 135.067C337.626 135.181 334.005 135.122 330.398 135.031C329.262 134.999 328.628 135.341 328.359 136.422C328.267 136.703 328.151 136.976 328.012 137.238C326.266 141.219 326.147 141.283 321.527 140.59C321.728 140.134 321.901 139.678 322.107 139.249C325.755 131.519 329.403 123.804 333.006 116.061C333.462 115.076 334.046 114.838 335.109 114.693C338.014 114.287 339.4 115.408 340.54 118.131C343.532 125.272 346.925 132.267 350.158 139.295C350.364 139.732 350.532 140.184 350.756 140.717ZM341.53 131.415C339.706 127.206 337.982 123.179 336.13 118.879C334.224 123.215 332.482 127.206 330.658 131.364L341.53 131.415Z" fill="black"/>
<path d="M380.985 86.2963L380.949 93.7522L395.442 93.8206V97.7195L380.908 97.6557L380.857 108.144L376.188 108.121L376.306 82.2788L397.02 82.3746V86.351L380.985 86.2963Z" fill="black"/>
<path d="M347 119.075V114.907L370.856 115.016V119.161L361.366 119.116L361.27 140.836H356.513L356.614 119.139L347 119.075Z" fill="black"/>
<path d="M311.03 118.892L301.453 118.847V114.679L325.214 114.788V118.92L315.796 118.879L315.696 140.599L310.925 140.576L311.03 118.892Z" fill="black"/>
<path d="M203.295 85.6125L193.672 85.5669L193.695 81.4126L217.501 81.522V85.5806L208.106 85.535L208.006 107.337H203.213L203.295 85.6125Z" fill="black"/>
<path d="M252.78 81.7178V85.7946L243.203 85.7536L243.075 107.501L238.323 107.478L238.423 85.8174L228.91 85.7718V81.6084L252.78 81.7178Z" fill="black"/>
<path d="M306.814 81.9641V86.0135L297.282 85.9679L297.182 107.765H292.38L292.48 86.0773L282.98 86.0317V81.8774L306.814 81.9641Z" fill="black"/>
<path d="M212.488 114.241H217.103L217.003 135.961L232.052 136.03V140.193L212.383 140.106L212.488 114.241Z" fill="black"/>
<path d="M225.408 107.469H220.797L220.915 81.5903H225.526L225.408 107.469Z" fill="black"/>
<path d="M127.117 81.0889L131.769 81.1117C131.801 81.6224 131.856 82.0921 131.856 82.5664C131.824 90.2274 131.764 97.8839 131.778 105.545C131.778 106.763 131.459 107.246 130.2 107.118C129.179 107.018 128.143 107.091 127.008 107.086L127.117 81.0889Z" fill="black"/>
<path d="M0.205442 115.08C7.62545 115.08 14.8539 114.875 22.0687 115.148C26.9302 115.335 31.0119 119.421 31.9195 124.177C31.999 124.634 32.129 125.081 32.3071 125.509C33.1599 120.283 35.9556 116.767 41.1455 115.326C42.3904 115.005 43.6726 114.852 44.9581 114.87C62.7412 114.843 80.5273 114.843 98.3164 114.87C103.21 114.87 105.983 117.606 105.996 122.417C105.996 127.67 105.996 132.906 105.996 138.182V139.823H104.268C98.3712 139.823 92.4744 139.732 86.5822 139.846C79.5908 139.978 74.7247 135.286 74.0817 129.814C73.9897 129.537 73.8673 129.271 73.7169 129.02C73.311 132.285 72.0796 134.812 69.8313 136.814C67.6307 138.783 64.7665 139.847 61.8138 139.791C43.6355 139.813 25.4572 139.813 7.27885 139.791C3.0193 139.791 0.168957 136.996 0.127912 132.792C0.0686252 127.196 0.127912 121.596 0.127912 116.001C0.135244 115.693 0.161134 115.385 0.205442 115.08Z" fill="#E31919"/>
</g>
<defs>
<clipPath id="clip0_651_2">
<rect width="397" height="141" fill="white"/>
</clipPath>
</defs>
</svg>
